<svg width="50" height="29" viewBox="0 0 50 29" fill="none" xmlns="http://www.w3.org/2000/svg">
<path fill-rule="evenodd" clip-rule="evenodd" d="M24.5248 28.3358H27.4752C27.4752 28.3358 28.3664 28.2436 28.8274 27.7519C29.2577 27.2909 29.2269 26.4611 29.2269 26.4611C29.2269 26.4611 29.1655 22.4965 31.0095 21.9126C32.8227 21.3287 35.1584 25.7542 37.617 27.4445C39.4917 28.7353 40.9054 28.4587 40.9054 28.4587L47.513 28.3665C47.513 28.3665 50.9551 28.1514 49.3262 25.4469C49.2033 25.2318 48.3735 23.4492 44.409 19.7613C40.26 15.9197 40.8132 16.5344 45.8227 9.89606C48.8652 5.83932 50.0638 3.38069 49.695 2.30504C49.3262 1.29086 47.1135 1.56745 47.1135 1.56745L39.6761 1.62892C39.6761 1.62892 39.1229 1.56745 38.7234 1.81331C38.3239 2.05918 38.078 2.61237 38.078 2.61237C38.078 2.61237 36.9102 5.74712 35.3428 8.42088C32.0236 14.045 30.7021 14.3523 30.1797 13.9835C28.9196 13.1845 29.2269 10.7258 29.2269 8.97407C29.2269 3.53436 30.0567 1.26012 27.6288 0.676199C26.8298 0.491802 26.2151 0.338136 24.156 0.338136C21.513 0.307403 19.2695 0.338138 17.9787 0.983528C17.1182 1.38306 16.4728 2.33577 16.8723 2.36651C17.3641 2.42797 18.4704 2.67384 19.0544 3.47289C19.8227 4.51781 19.792 6.82277 19.792 6.82277C19.792 6.82277 20.2222 13.2459 18.7778 14.045C17.7636 14.5982 16.4113 13.4611 13.461 8.35942C11.9551 5.74712 10.818 2.85823 10.818 2.85823C10.818 2.85823 10.6028 2.30504 10.2033 2.02844C9.74231 1.69038 9.06619 1.56745 9.06619 1.56745L1.99763 1.59819C1.99763 1.59819 0.921979 1.62892 0.553184 2.08991C0.215123 2.48944 0.522452 3.34996 0.522452 3.34996C0.522452 3.34996 6.05437 16.2885 12.3239 22.8039C18.0095 28.7353 24.5248 28.3358 24.5248 28.3358Z" fill="white"/>
</svg>
