<svg width="117" height="138" viewBox="0 0 117 138" fill="none" xmlns="http://www.w3.org/2000/svg">
<path d="M115.961 87.1638C115.961 102.452 115.961 117.741 115.961 133.029C115.961 136.603 115.643 136.881 112.073 136.921C107.471 136.921 102.829 136.841 98.2273 137C95.49 137.079 94.6172 135.968 94.6172 133.307C94.6569 102.532 94.6569 71.7563 94.6569 40.9809C94.6569 37.4864 94.9742 37.1687 98.5844 37.129C103.186 37.0893 107.828 37.2084 112.43 37.0893C115.167 37.0099 116.04 38.082 116.04 40.7426C115.921 56.1899 115.961 71.6768 115.961 87.1638Z" fill="#918FE0"/>
<path d="M52.9219 93.8351C52.9219 106.979 52.9219 120.083 52.9219 133.228C52.9219 136.484 52.4459 136.921 49.1135 136.96C44.7892 136.96 40.4254 136.96 36.1011 136.96C31.8563 136.96 31.5389 136.682 31.5389 132.513C31.5389 109.481 31.5389 86.4093 31.5389 63.3774C31.5389 60.28 31.6182 57.1429 31.5389 54.0455C31.4596 51.6629 32.372 50.551 34.8317 50.6304C39.7509 50.7099 44.6306 50.7099 49.5499 50.6304C52.1285 50.5907 53.0013 51.6629 53.0013 54.2043C52.8823 67.3881 52.9219 80.6116 52.9219 93.8351Z" fill="#918FE0"/>
<path d="M0.0794779 95.9396C0.0794779 83.6691 0.11915 71.3987 0.0398062 59.1283C0.00013449 56.428 0.952255 55.3955 3.64993 55.4749C8.4502 55.5941 13.2505 55.5941 18.0904 55.4749C20.5501 55.4352 21.4228 56.428 21.4228 58.8503C21.3832 83.7486 21.3832 108.687 21.4625 133.585C21.4625 136.007 20.5104 137 18.0904 136.96C13.2901 136.881 8.4502 136.841 3.64993 137C0.912583 137.079 0.00013449 136.007 0.0398062 133.347C0.0794779 120.838 0.0398062 108.409 0.0794779 95.9396C0.0398062 95.9396 0.0398062 95.9396 0.0794779 95.9396Z" fill="#918FE0"/>
<path d="M63.0779 104.08C63.0779 94.5497 63.0779 84.9796 63.0779 75.4491C63.0779 71.9546 63.435 71.637 67.0054 71.637C71.8057 71.637 76.6457 71.6767 81.4459 71.637C83.6279 71.637 84.5007 72.59 84.5007 74.7344C84.461 94.4703 84.461 114.206 84.5007 133.982C84.5007 136.166 83.4692 137.04 81.3666 137C76.368 136.96 71.3693 136.92 66.3707 137C63.9111 137.04 63.0383 135.967 63.0779 133.585C63.1573 123.697 63.0779 113.889 63.0779 104.08Z" fill="#918FE0"/>
<path d="M44.6306 27.6382C38.9178 31.0135 36.3392 30.7753 31.4596 26.7248C30.9438 26.3277 29.9124 26.1292 29.3173 26.3674C26.58 27.3602 23.8029 28.3927 21.1846 29.6634C20.4705 30.0208 19.9151 31.2915 19.7961 32.2048C19.2407 36.6524 15.8686 40.1866 11.5444 40.5837C7.22017 40.9808 2.9753 38.0025 1.94383 33.8329C0.872697 29.4648 2.89595 25.0173 6.98214 23.2303C10.3939 21.7611 13.766 22.1185 16.4637 24.6599C17.9315 26.01 19.0423 26.0895 20.6689 25.2556C21.9384 24.6202 23.2475 24.104 24.5964 23.6671C27.3337 22.7538 29.3966 21.7611 29.8727 18.1474C30.4281 13.819 35.5457 11.1187 39.9096 11.8732C44.4719 12.6674 47.844 16.7576 47.2489 21.4434C46.9712 23.7069 47.6853 24.8187 49.3912 26.01C54.9849 30.0208 60.4992 34.1903 65.9739 38.3599C67.2038 39.3129 68.0765 39.4718 69.7031 38.7967C71.5676 38.0025 73.9083 37.8437 75.9712 38.0422C77.3597 38.1614 78.1531 38.1614 79.0656 37.0495C84.7783 29.9811 90.5307 22.9921 96.3228 16.0428C97.3542 14.8118 97.5129 13.8587 96.8782 12.31C95.212 8.14048 96.7988 3.81208 100.488 1.42947C103.9 -0.754587 108.462 -0.278065 111.477 2.58106C114.453 5.40048 115.167 10.0466 113.223 13.5014C111.081 17.2738 106.994 19.1402 102.869 17.79C101.163 17.2341 100.33 17.6312 99.3378 18.8622C93.7441 25.7718 88.1504 32.6416 82.4377 39.4718C81.4062 40.7028 81.2475 41.6161 82.0013 43.1648C83.7865 46.8182 82.7947 50.8289 79.8193 53.4895C76.963 56.0706 72.8371 56.5869 69.5444 54.7999C66.1326 52.9335 64.1094 49.1611 64.9028 45.2695C65.2598 43.4825 64.8234 42.6089 63.4349 41.5764C57.1271 36.97 50.9384 32.324 44.6306 27.6382Z" fill="#918FE0"/>
</svg>
