<svg width="147" height="147" viewBox="0 0 147 147" fill="none" xmlns="http://www.w3.org/2000/svg">
<path d="M147 20.0676C140.926 26.1004 134.81 32.1332 128.778 38.2499C127.647 39.381 126.558 40.0094 124.966 39.8419C123.584 39.7162 122.202 39.8 120.526 39.8C133.595 58.3593 137.282 78.385 130.831 99.877C126.013 115.923 116.086 128.407 101.801 137.163C74.4478 153.963 38.6744 148.894 17.0176 124.637C-5.89578 98.9553 -5.09988 61.2082 15.9704 36.6579C38.6744 10.1804 74.4059 7.54105 98.7017 21.1987C98.4503 21.5339 98.199 21.869 97.9477 22.1204C95.2668 24.8017 92.5859 27.441 89.9468 30.1223C89.2766 30.8345 88.732 31.0021 87.7686 30.5831C65.9862 21.2825 40.9783 27.5248 26.0657 45.2463C16.6825 56.3903 12.326 69.3357 13.4571 83.8732C15.2583 107.083 31.0924 126.061 53.5032 131.968C79.4326 138.797 106.87 125.014 116.672 100.003C123.793 81.7785 121.489 64.5178 110.347 48.4303C110.054 48.0113 109.719 47.6343 109.342 47.1315C108.923 47.5086 108.546 47.76 108.252 48.0951C105.781 50.5669 103.351 53.1225 100.796 55.5105C99.7908 56.4322 99.9165 57.1025 100.587 58.1498C105.153 65.1044 107.247 72.7711 107.121 81.0244C106.744 100.17 92.4183 116.593 73.4425 119.609C52.5397 122.919 32.8099 109.806 27.9507 89.4033C22.5889 67.241 36.7056 45.1625 59.0326 40.6798C65.4416 39.381 72.2277 39.7162 78.2597 41.6014C77.9665 41.9366 77.7571 42.2718 77.5057 42.5231C74.4059 45.6233 71.2642 48.7235 68.2063 51.8656C67.3266 52.7873 66.3632 53.2063 65.0646 53.2901C53.5032 53.9604 43.4498 62.4231 40.7689 73.609C36.5799 91.3304 50.4034 107.837 68.5833 106.831C87.8105 105.742 99.707 84.6692 90.7427 67.6599C90.5333 67.2829 90.3238 66.9477 90.0306 66.4869C89.6955 66.7383 89.4023 66.9058 89.1928 67.1572C86.3444 70.006 83.454 72.813 80.6474 75.7456C80.2285 76.1646 79.9772 77.0025 80.061 77.6309C80.9406 85.1719 76.9193 91.498 69.84 93.0481C64.3525 94.2212 59.619 92.5873 56.226 88.0208C52.9167 83.538 52.5397 78.5945 55.2206 73.6928C57.9016 68.7911 62.2161 66.3612 67.8293 66.8639C69.8819 67.0315 71.1386 66.4869 72.5628 65.0625C83.6634 53.8766 94.806 42.7326 105.99 31.6305C106.87 30.7507 107.247 29.8709 107.205 28.6141C107.121 26.2261 107.247 23.7962 107.163 21.4082C107.121 20.277 107.498 19.481 108.294 18.685C114.284 12.7779 120.233 6.78694 126.181 0.837894C126.432 0.586526 126.642 0.293263 126.893 0C126.977 0 127.103 0 127.186 0C127.186 6.57747 127.186 13.113 127.186 19.7743C133.847 19.7743 140.423 19.7743 146.958 19.7743C147 19.8581 147 19.9419 147 20.0676Z" fill="#918FE0"/>
</svg>
