<svg width="161" height="151" viewBox="0 0 161 151" fill="none" xmlns="http://www.w3.org/2000/svg">
<path d="M98.9263 15.7363C100.193 12.265 101.46 8.90948 102.842 5.32251C108.715 7.52098 113.898 10.298 118.85 13.7693C139.464 28.6957 150.059 49.1762 150.981 74.5164C151.326 83.7731 149.599 92.6827 146.374 101.361C145.798 102.981 146.029 103.906 147.411 105.064C151.211 108.072 154.896 111.312 158.697 114.552C159.157 115.014 159.848 115.246 161 115.94C144.301 122.073 128.524 127.742 112.285 133.644C115.28 116.634 118.159 99.9723 121.153 82.8474C126.105 87.0129 130.942 91.0628 135.779 95.2283C146.144 70.1195 135.433 31.1256 98.9263 15.7363Z" fill="#918FE0"/>
<path d="M72.2079 32.8613C74.5112 32.8613 76.5842 32.8613 79.0026 32.8613C79.0026 33.9027 79.0026 34.8284 79.0026 35.754C79.0026 45.4736 79.0026 55.3088 79.0026 65.0284C79.0026 66.4169 78.6571 66.9954 80.1543 67.574C85.2215 69.8881 85.4518 75.7893 83.2637 79.6077C80.9604 83.5418 76.0083 85.046 71.8624 83.1947C71.0563 82.8475 69.6743 82.8475 68.9833 83.1947C61.9583 86.8973 55.0484 90.7157 47.9082 94.6498C46.8717 92.7985 45.8352 90.9472 44.6836 88.8644C48.1385 86.8973 51.3631 84.9303 54.5877 83.079C57.3517 81.5747 60.1156 80.0705 62.9948 78.5663C65.298 77.2935 67.371 75.905 67.371 75.905C67.371 75.905 65.6435 69.3096 71.7473 66.9954C72.3231 66.764 72.3231 66.0698 72.3231 65.0284C72.4382 55.3088 72.4382 45.4736 72.4382 35.754C72.2079 34.9441 72.2079 34.0184 72.2079 32.8613Z" fill="#918FE0"/>
<path d="M67.947 150.769C65.6437 150.537 67.0257 150.653 62.6494 150.074C62.6494 150.074 62.9949 147.992 63.3404 146.256C63.8011 143.942 64.2617 141.512 64.7224 139.198C66.7953 139.313 68.0621 139.429 68.0621 139.429C68.0621 139.429 68.1773 147.876 67.947 150.769Z" fill="#918FE0"/>
<path d="M27.0636 133.644C25.7968 132.487 24.6452 131.561 23.2632 130.288C26.1423 127.743 28.7911 125.313 31.6702 122.651C32.1308 122.998 33.0522 123.808 34.0886 124.734C31.7854 127.743 29.4821 130.635 27.0636 133.644Z" fill="#918FE0"/>
<path d="M19.3477 24.5304C20.7296 23.2576 21.7661 22.3319 23.0329 21.2905C25.4514 23.9518 27.985 26.6131 30.6338 29.5059C29.8276 30.4315 29.0215 31.2415 28.1002 32.2829C25.221 29.6216 22.4571 27.3074 19.3477 24.5304Z" fill="#918FE0"/>
<path d="M73.2446 0C74.9721 0 76.3541 0 78.0816 0C77.8512 3.70268 77.7361 7.40536 77.5057 11.2238C76.2389 11.2238 75.0873 11.2238 73.8205 11.2238C73.5901 7.52107 73.3598 3.81839 73.2446 0Z" fill="#918FE0"/>
<path d="M52.2845 15.6208C51.0177 16.0836 49.9812 16.5465 48.8296 17.0093C47.2173 13.6537 45.605 10.2982 43.9927 6.82691C45.4898 6.13266 46.8718 5.55412 48.3689 4.85986C49.6357 8.44684 50.9025 11.9181 52.2845 15.6208Z" fill="#918FE0"/>
<path d="M30.8643 14.5793C32.2462 13.6536 33.3979 12.7279 34.7799 11.8022C36.7376 15.0421 38.6954 18.1662 40.6532 21.5218C39.6168 22.216 38.6954 22.9103 37.659 23.7203C35.3557 20.5961 33.1675 17.5877 30.8643 14.5793Z" fill="#918FE0"/>
<path d="M10.48 36.9111C11.4013 35.5226 12.0923 34.2498 13.1288 32.7456C16.2382 34.9441 19.2325 37.1425 22.3419 39.341C21.5358 40.4981 20.96 41.4238 20.269 42.4651C17.0444 40.7295 13.9349 38.8782 10.48 36.9111Z" fill="#918FE0"/>
<path d="M16.4685 122.767C15.432 121.379 14.6258 120.106 13.5894 118.833C16.6988 116.75 19.6931 114.667 22.9177 112.585C23.6087 113.51 24.2997 114.32 25.221 115.477C22.3419 117.792 19.5779 120.221 16.4685 122.767Z" fill="#918FE0"/>
<path d="M53.5514 147.991C51.9391 147.413 50.6723 146.95 48.9448 146.487C50.3268 142.9 51.7088 139.545 53.0907 135.958C54.2424 136.421 55.2789 136.768 56.5457 137.231C55.6244 140.702 54.5879 144.173 53.5514 147.991Z" fill="#918FE0"/>
<path d="M0.690918 65.4911C1.03641 63.7555 1.26674 62.367 1.49707 60.7471C5.18233 61.557 8.75243 62.367 12.4377 63.177C12.2074 64.4498 12.0922 65.6068 11.8619 66.8796C8.17661 66.4168 4.60651 65.954 0.690918 65.4911Z" fill="#918FE0"/>
<path d="M0.230329 80.7648C0.115165 79.0292 0.115165 77.6407 0 76.0208C3.80043 76.0208 7.37053 76.0208 11.171 76.0208C11.171 77.2935 11.171 78.4506 11.171 79.7234C7.60086 80.0706 4.14592 80.4177 0.230329 80.7648Z" fill="#918FE0"/>
<path d="M6.10352 105.526C9.78878 104.022 13.1286 102.634 16.5835 101.245C17.1593 102.402 17.5048 103.328 18.0806 104.601C14.856 106.336 11.7466 108.072 8.29164 109.923C7.60065 108.535 6.90967 107.146 6.10352 105.526Z" fill="#918FE0"/>
<path d="M41.4592 130.288C42.6108 130.982 43.5321 131.445 44.6838 132.139C42.9563 135.495 41.2289 138.851 39.5014 142.322C38.0043 141.396 36.7374 140.586 35.3555 139.776C37.4284 136.536 39.3862 133.528 41.4592 130.288Z" fill="#918FE0"/>
<path d="M58.1582 1.96715C59.7705 1.62002 61.1525 1.27289 62.8799 0.810059C63.4558 4.62845 64.0316 8.21542 64.6074 12.0338C63.3406 12.3809 62.3041 12.6124 61.0373 12.9595C60.116 9.37251 59.1947 5.90125 58.1582 1.96715Z" fill="#918FE0"/>
<path d="M86.6035 11.9179C86.6035 11.9179 87.7552 4.85965 88.331 1.04126C89.9433 1.38839 91.4404 1.73551 93.0527 2.08264C92.1314 5.5539 90.0585 12.7279 90.0585 12.7279L86.6035 11.9179Z" fill="#918FE0"/>
<path d="M4.146 50.6804C4.72182 49.0604 5.18248 47.7876 5.87346 46.1677C9.3284 47.6719 12.6682 49.1762 16.2383 50.6804C15.7776 51.9532 15.4321 52.9945 14.9715 54.2673C11.2862 53.1103 7.7161 51.9532 4.146 50.6804Z" fill="#918FE0"/>
<path d="M2.64879 95.8068C2.30329 94.1869 1.9578 92.7984 1.6123 91.0627C5.29757 90.3685 8.86767 89.6742 12.5529 88.98C12.8984 90.2528 13.1288 91.2942 13.4742 92.567C9.78899 93.6083 6.33405 94.6497 2.64879 95.8068Z" fill="#918FE0"/>
<path d="M82.5728 150.769C80.7302 150.884 79.4634 151 77.8511 151C77.8511 147.182 77.8511 143.595 77.8511 139.776C78.8876 139.661 79.924 139.545 81.1909 139.545C81.7667 143.248 82.1122 146.835 82.5728 150.769Z" fill="#918FE0"/>
</svg>
