<svg width="164" height="160" viewBox="0 0 164 160" fill="none" xmlns="http://www.w3.org/2000/svg">
<path d="M87.6 4.6C75.7 4.6 63.9 4.6 52 4.6C50 4.6 48 4.7 46 4.6C44.6 4.5 43.7 5.1 42.8 6C38.9 9.9 34.9 13.9 31 17.8C28.8 20 26.7 22.2 24.6 24.4C23.8 25.2 24.1 26.3 24.5 27C25.1 28 24.8 28.9 24.6 29.8C24 32.8 21.1 35.2 17.9 35.4C15 35.6 11.9 33.5 10.9 30.6C9.40002 26.3 12.1 21.7 16.6 21.1C17.7 21 18.9 21.3 20.1 21.4C20.6 21.4 21.2 21.3 21.4 21.1C28 14.5 34.6 7.9 41.2 1.3C42 0.4 43 0 44.1 0C47.2 0 50.3 0 53.4 0C54.2 0 94.6 0 112.1 0C116.2 0 120.3 0 124.3 0C125.5 0 126.5 0.4 127.3 1.3C136.3 10.3 145.3 19.3 154.3 28.4C157.2 31.3 160 34.2 162.9 37C163.7 37.8 164 38.7 164 39.8C164 47.4 164 55 164 62.6C164 63.8 163.7 64.8 162.8 65.6C161.6 66.7 160.5 68 159.3 69.1C158.8 69.6 158.7 70 158.9 70.7C159.7 73.5 159.2 76 157.1 78.1C155.1 80.1 152.7 80.6 150 79.8C146.4 78.7 144.4 75.1 145.3 71.2C146.1 67.8 149.8 65.3 153.3 65.8C153.4 65.8 153.5 65.8 153.5 65.8C155.1 66.8 156 65.8 157.2 64.8C159.1 63.2 159.6 61.4 159.6 59C159.4 53.1 159.5 47.2 159.6 41.3C159.6 40.3 159.3 39.5 158.6 38.8C155.3 35.5 151.9 32.2 148.6 28.8C147.1 27.3 145.7 25.7 144.2 24.2C141.3 21.3 138.4 18.6 135.5 15.7C132.1 12.3 128.7 8.9 125.3 5.5C124.7 4.8 124 4.6 123.1 4.6C111.2 4.7 99.4 4.7 87.6 4.6Z" fill="#918FE0"/>
<path d="M27.3999 86.4999C27.8999 86.8999 28.6999 87.2999 29.2999 87.2999C37.7999 87.3999 46.3999 87.2999 54.8999 87.3999C55.7999 87.3999 56.2999 87.1999 56.7999 86.2999C58.2999 83.4999 61.1999 82.0999 64.2999 82.5999C66.9999 82.9999 69.2999 85.2999 70.0999 88.0999C71.1999 92.2999 67.7999 96.6999 63.3999 96.7999C60.3999 96.7999 58.2999 95.4999 56.8999 92.9999C56.3999 92.1999 55.8999 91.8999 54.9999 91.8999C46.0999 91.8999 37.2999 91.8999 28.3999 91.8999C26.9999 91.8999 25.9999 91.4999 25.0999 90.5999C18.7999 84.2999 12.4999 77.8999 6.09985 71.5999C5.19985 70.6999 4.89985 69.7999 4.89985 68.4999C4.89985 62.9999 4.89985 57.5999 4.89985 52.0999C4.89985 51.1999 4.69985 50.6999 3.79985 50.1999C0.999854 48.7999 -0.400146 45.9999 0.0998539 42.7999C0.499854 40.1999 2.59985 37.8999 5.39985 37.1999C8.69985 36.2999 12.4999 38.0999 13.6999 41.2999C15.0999 44.6999 13.8999 48.4999 10.6999 50.1999C9.69985 50.7999 9.39985 51.3999 9.39985 52.4999C9.49985 57.4999 9.39985 62.5999 9.39985 67.5999C9.39985 68.3999 9.59985 68.8999 10.1999 69.3999C13.8999 72.9999 17.4999 76.5999 21.0999 80.2999C21.3999 80.6999 26.1999 85.4999 27.3999 86.4999Z" fill="#918FE0"/>
<path d="M112.8 133.8C112.8 130.3 112.7 126.9 112.8 123.4C112.8 122.6 113.2 121.7 113.7 121.1C117.1 117.6 120.6 114.1 124.1 110.7C124.6 110.2 125.5 110 126.2 110C130.1 109.9 134 110 138 110C138.8 110 139.4 109.8 140 109.2C142.9 106.3 145.8 103.4 148.7 100.5C149.8 99.4 149.6 98.7 148.4 97.9C145.9 96.4 144.4 94.2 144.5 91.3C144.7 88.4 146.3 86.1 149.1 84.9C152.5 83.5 156.5 85.1 158.2 88.6C159.7 91.6 158.5 95.8 155.5 97.5C154.3 98.2 153.9 98.9 153.9 100.3C153.9 101 153.6 101.9 153 102.5C149.3 106.3 145.6 110 141.9 113.6C141.4 114.1 140.4 114.5 139.7 114.5C135.6 114.6 131.6 114.5 127.5 114.6C127 114.6 126.3 114.9 126 115.2C123.5 117.7 121 120.2 118.4 122.7C117.7 123.4 117.3 124.2 117.3 125.2C117.3 131.5 117.3 137.8 117.3 144.2C117.3 145 117.6 145.4 118.3 145.8C120.9 147.2 122.3 149.5 122.2 152.5C122.1 155.4 119.9 158.2 117.3 159C113.3 160.1 110 158.2 108.6 155.2C107 151.8 108.2 148 111.4 146.1C112.4 145.5 112.7 144.9 112.7 143.8C112.7 140.4 112.8 137.1 112.8 133.8Z" fill="#918FE0"/>
<path d="M100.6 17.7C94.8998 17.7 89.2998 17.7 83.5998 17.7C82.7998 17.7 82.3998 17.9 81.9998 18.7C80.5998 21.3 78.2998 22.7 75.3998 22.6C72.3998 22.5 70.0998 20.9 68.9998 18.1C67.8998 15.3 68.3998 12.7 70.4998 10.5C73.7998 7.00005 79.4998 7.80005 81.8998 12.2C82.2998 12.9 82.7998 13.1 83.4998 13.1C95.1998 13.1 106.9 13.1 118.6 13.1C119.8 13.1 120.8 13.5 121.6 14.4C126.2 19 130.8 23.6 135.4 28.2C136 28.8 136.6 29 137.6 28.8C141 28 144.7 29 146.3 33.2C147.6 36.8 145.7 40.7 142.2 42.2C138.8 43.7 135.1 42 133.9 39.8C133 38.2 131.6 36.4 132.7 34.2C132.9 33.7 133.1 33.1 133.1 32.6C133.1 32.4 132.9 32.1 132.7 31.9C128.3 27.5 123.9 23.1 119.5 18.7C118.8 18 118.1 17.7 117.2 17.7C111.8 17.8 106.2 17.7 100.6 17.7Z" fill="#918FE0"/>
<path d="M87.2999 59.1001C87.2999 63.8001 82.7998 67.2001 78.1998 65.8001C77.1998 65.5001 76.5998 65.7001 75.9998 66.4001C72.8998 69.6001 69.5998 72.8001 66.4998 76.0001C65.6998 76.8001 64.6998 77.2001 63.5998 77.2001C55.5998 77.2001 47.5998 77.2001 39.6999 77.2001C37.6999 77.2001 36.7998 75.9001 35.5998 74.8001C33.3998 72.6001 31.1998 70.4001 28.9998 68.2001C28.1998 67.4001 27.2998 66.5001 26.4998 65.7001C25.9998 65.2001 25.6998 65.1001 24.9998 65.3001C20.4998 67.0001 15.5998 63.7001 15.4998 58.6001C15.3998 55.3001 17.5998 52.2001 21.4998 51.5001C26.6998 50.6001 30.9998 55.7001 29.4998 60.4001C29.1998 61.4001 29.2998 62.0001 30.0998 62.8001C33.0998 65.7001 35.9998 68.7001 38.9998 71.7001C39.5998 72.3001 40.2998 72.6001 41.0998 72.6001C48.1998 72.6001 55.2999 72.6001 62.3998 72.6001C63.1998 72.6001 63.7999 72.4001 64.3998 71.8001C67.3998 68.8001 70.3998 65.8001 73.3998 62.8001C73.7999 62.4001 73.9998 62.0001 73.6998 61.5001C72.2998 58.4001 73.8998 54.8001 76.6998 53.0001C79.1998 51.4001 83.0999 51.7001 85.2999 53.9001C86.4998 55.2001 87.3998 56.9001 87.2999 59.1001Z" fill="#918FE0"/>
<path d="M112.1 43.2999C112.1 41.5999 112.1 39.8999 112.1 38.1999C112.1 37.3999 111.8 36.9999 111.1 36.6999C108 35.1999 106.5 31.8999 107.3 28.6999C108.1 25.3999 111.1 23.0999 114.4 23.1999C117.7 23.1999 120.4 25.5999 121.3 29.0999C122 31.6999 120.3 35.2999 117.6 36.5999C116.8 36.9999 116.6 37.4999 116.6 38.2999C116.6 42.0999 116.6 45.7999 116.6 49.5999C116.6 50.7999 116.2 51.5999 115.4 52.4999C107.9 59.9999 100.5 67.3999 93 74.8999C92.3 75.5999 92.2 76.1999 92.5 77.0999C93.8 81.1999 91 85.5999 86.7 86.1999C82.3 86.7999 78.5 83.4999 78.5 79.1999C78.5 74.0999 83.2 70.9999 87.6 72.2999C88.7 72.5999 89.2 72.3999 89.9 71.6999C96.9 64.6999 103.8 57.6999 110.8 50.7999C111.6 49.9999 112.1 49.0999 112 47.8999C112 46.2999 112.1 44.7999 112.1 43.2999Z" fill="#918FE0"/>
<path d="M81.6997 36.4C83.6997 36.4 85.5997 36.4 87.5997 36.4C88.2997 36.4 88.6997 36.2 89.0997 35.5C90.3997 33 92.4997 31.6 95.2997 31.5C99.1997 31.4 102.4 34.3 102.7 38.1C102.9 41.6 100.7 44.7 97.4997 45.6C94.1997 46.5 90.8997 45 89.1997 41.8C88.7997 41.1 88.3997 41 87.6997 41C83.4997 41 79.1997 41 74.8997 41C73.5997 41 72.5997 40.5 71.6997 39.6C66.2997 34.1 60.7997 28.7 55.3997 23.2C54.8997 22.7 54.3997 22.5 53.6997 22.8C49.4997 24.2 45.3997 21.8 44.3997 17.3C43.6997 14 45.6997 9.90005 50.1997 9.00005C55.2997 8.00005 59.7997 13 58.2997 18C57.9997 19 58.0997 19.6 58.7997 20.3C63.8997 25.3 68.8997 30.4 73.8997 35.4C74.4997 36 75.1997 36.4 76.0997 36.3C77.9997 36.4 79.8997 36.4 81.6997 36.4Z" fill="#918FE0"/>
<path d="M104.8 84.4001C101.1 84.3001 98.0997 81.6001 97.6997 78.0001C97.2997 74.5001 99.6997 71.1001 103.3 70.4001C104.5 70.2001 105.9 70.4001 107.2 70.6001C107.9 70.8001 108.4 70.6001 108.8 70.1001C113.6 65.2001 118.5 60.4001 123.3 55.5001C124.7 54.1001 126 52.7001 127.4 51.5001C128 51.0001 128.9 50.6001 129.6 50.6001C132.7 50.5001 135.8 50.5001 138.9 50.6001C139.6 50.6001 140 50.4001 140.4 49.7001C142.2 46.6001 144.9 45.2001 148.1 45.8001C151 46.3001 153.6 48.9001 153.9 51.6001C154.3 55.2001 152.8 58.0001 149.8 59.4001C146.3 60.9001 142.3 59.6001 140.6 56.2001C140.2 55.5001 139.9 55.2001 139.1 55.2001C136.5 55.2001 133.9 55.2001 131.3 55.2001C130.7 55.2001 130 55.5001 129.6 55.9001C124.7 60.7001 119.9 65.6001 115.1 70.5001C114.1 71.5001 113.1 72.6001 112.1 73.5001C111.5 74.1001 111.6 74.6001 111.8 75.3001C113 79.3001 110.7 83.3001 106.7 84.3001C106 84.3001 105.4 84.3001 104.8 84.4001Z" fill="#918FE0"/>
<path d="M84.9 96.9001C84.8 97.5001 84.9 98.2001 84.6 98.7001C84 99.7001 84.4 100.3 85.1 101.1C90.7 106.7 96.3 112.2 101.9 117.9C102.5 118.6 103 119.7 103 120.6C103.1 123.8 103.1 127 103 130.2C103 130.8 103.2 131.2 103.8 131.5C106.8 133 108.3 136.2 107.6 139.4C107 142.4 104.2 144.8 101 145C97.9 145.2 94.9 143.1 93.8 140C92.8 137.2 93.8 133.7 96.5 132.1C98.1 131.1 98.5 130 98.4 128.3C98.3 126.1 98.4 123.9 98.3 121.8C98.3 121.1 97.9 120.3 97.4 119.8C92.3 114.6 87.1 109.5 82 104.3C81.3 103.6 80.7 103.3 79.6 103.6C75.1 105 70.5 101.6 70.5 96.7001C70.5 93.3001 72.8 90.5001 76.3 89.8001C80.9 88.9001 85 92.8001 84.9 96.9001Z" fill="#918FE0"/>
<path d="M136.7 90.3C134.9 90.2 132.8 88.8 131.4 86.4C131 85.7 130.6 85.5 129.9 85.5C128.2 85.5 126.5 85.5 124.8 85.5C124.3 85.5 123.8 85.7 123.5 86C119.8 89.6 116.2 93.2 112.6 96.9C111.6 97.9 110.5 98.4 109.1 98.4C106.8 98.4 104.5 98.4 102.2 98.4C101.4 98.4 100.9 98.6 100.5 99.4C98.9996 102 96.7997 103.3 93.7997 103.2C91.0997 103.1 88.1997 100.8 87.3997 98.1C86.5997 95.2 87.7996 91.7 90.1996 90.2C94.0996 87.8 98.4996 88.9 100.6 92.9C100.9 93.5 101.3 93.7 101.9 93.6C104.2 93.6 106.4 93.6 108.7 93.6C109.2 93.6 109.8 93.3 110.1 93C113.9 89.3 117.6 85.6 121.3 81.8C121.9 81.2 122.6 80.9 123.5 80.9C125.5 80.9 127.4 80.8 129.4 80.9C130.6 81 131.3 80.6 131.8 79.5C133.8 75.9 138.6 74.7 141.9 77.2C143.2 78.2 144.3 79.4 144.8 81.3C145.3 83.4 145 85 144.1 86.7C142.8 89 140.4 90.3 136.7 90.3Z" fill="#918FE0"/>
<path d="M55.2 46.9C55.1 48.4 55 49.8 55 51.3C55 51.8 55.6 52.3 56.1 52.6C57.8 53.6 59 55 59.6 56.9C60.5 59.7 59.4 62.9 56.9 64.7C54.4 66.5 51 66.5 48.7 64.7C44.2 61.3 44.6 55.4 49.6 52.5C50.3 52.1 50.5 51.7 50.5 50.9C50.5 48.9 50.5 46.8 50.5 44.8C50.5 44.2 50.2 43.6 49.8 43.2C47.3 40.6 44.8 38.2 42.3 35.6C41.7 34.9 41.1 34.7 40.1 35C34.7 36.5 29.7 31.8 31.1 26.4C32.1 22.5 35.5 20.7 38.4 20.9C42.2 21.2 45.2 24.2 45.2 27.9C45.2 28.8 44.8 29.6 44.8 30.5C44.8 31 44.9 31.7 45.2 32C48.1 35 51.1 38 54.1 40.9C54.8 41.6 55.1 42.4 55.1 43.4C55.1 44.7 55.2 46.9 55.2 46.9Z" fill="#918FE0"/>
</svg>
