<svg width="223" height="100" viewBox="0 0 223 100" fill="none" xmlns="http://www.w3.org/2000/svg">
<path d="M183.197 99.7711C181.313 100.286 179.542 99.8856 177.829 98.9125C176.059 97.9394 174.288 96.8518 172.461 95.9359C170.862 95.1346 170.462 94.1615 171.205 92.5015C172.632 89.2387 174.288 86.0332 175.316 82.656C176.744 77.9623 179.714 74.3561 182.683 70.6927C183.997 69.0899 184.682 67.3727 184.568 65.3692C184.339 61.4769 184.168 57.5272 183.711 53.6348C183.311 50.1431 183.882 47.0521 185.824 44.0184C186.738 42.5301 187.252 40.5839 187.309 38.8094C187.366 33.3715 187.194 27.9336 187.023 22.4958C186.966 19.004 188.051 16.1992 191.363 14.5393C193.076 13.6806 193.134 12.0207 193.362 10.3607C193.59 7.44137 193.134 4.23588 195.818 1.71727C198.33 -0.629608 200.9 -0.17168 203.641 0.686934C206.725 1.60279 207.81 4.35036 206.896 7.84206C206.668 8.81515 206.839 9.84549 206.782 10.8758C206.782 11.3338 206.953 12.1924 206.782 12.2496C205.126 12.9937 205.411 14.7682 204.726 15.9703C204.326 16.5999 203.413 17.0579 202.613 17.2868C201.928 17.4585 201.185 17.2296 199.872 17.1723C200.557 18.3744 201.014 19.0613 201.357 19.8054C203.47 23.7551 204.498 27.7047 202.442 32.055C200.957 35.2605 201.414 36.1763 204.383 38.1798C207.41 40.2405 210.494 42.1294 214.263 42.5873C215.062 42.7018 215.976 42.988 216.661 43.5032C217.347 44.0184 217.746 44.8197 218.26 45.5066C217.575 46.0218 216.89 46.8232 216.147 46.9949C215.234 47.2239 213.92 47.2811 213.235 46.8232C210.265 44.7053 206.725 44.419 203.413 43.5032C202.213 43.1597 201.014 42.7018 199.986 42.3584C199.415 47.3956 200.272 51.9749 203.356 56.3252C207.182 61.6486 209.866 67.7161 209.809 74.4133C209.751 79.1643 210.836 83.5719 211.864 88.0367C213.006 92.9022 216.262 94.7911 221.116 93.4173C221.572 93.3028 222.029 93.1884 223 92.9594C222.258 95.0201 221.401 96.3939 219.517 96.909C216.833 97.5959 214.149 98.2828 211.465 98.9125C210.265 99.1987 209.694 98.6835 209.237 97.5387C207.753 93.4746 206.04 89.4677 204.783 85.3464C203.755 81.9119 203.298 78.3057 202.385 74.8713C201.871 72.9823 201.243 71.0361 200.215 69.4906C198.787 67.3727 196.903 65.6555 195.132 63.5948C193.762 66.3996 192.677 68.9754 191.249 71.2651C190.164 72.9823 188.622 74.4133 187.252 75.9588C186.452 76.8747 185.538 77.6761 184.853 78.6492C182.969 81.3967 181.198 84.2588 179.314 87.0636C179.142 87.3498 178.914 87.6932 178.743 87.9794C176.059 92.9594 176.972 94.6194 181.313 97.8249C181.998 98.2828 182.74 98.6835 183.425 99.0842C183.311 99.3704 183.254 99.5421 183.197 99.7711Z" fill="#918FE0"/>
<path d="M147.563 14.2529C144.251 12.0205 140.939 10.246 138.14 7.84192C135.513 5.49504 131.687 4.86539 129.86 1.48817C129.689 1.20197 129.46 0.915764 129.003 0.171631C131.687 1.08749 134.143 1.03025 135.742 3.54885C136.313 4.4647 138.083 4.63643 139.168 5.32332C142.081 7.26951 144.936 9.33019 148.02 11.5053C148.705 9.84536 149.39 8.35709 149.961 6.86883C150.932 4.52195 153.045 3.54885 155.215 3.2054C158.927 2.63299 161.211 5.03711 161.725 8.18537C162.182 11.1047 161.211 13.9667 160.126 16.657C159.955 17.115 158.699 17.2294 157.271 17.6874C159.213 18.8894 160.869 19.9198 162.468 20.8929C164.01 21.866 165.551 22.8391 167.036 23.8694C168.292 24.728 169.435 25.6439 170.691 26.5025C171.662 27.1894 172.747 27.819 173.66 28.6204C174.289 29.1928 174.574 30.1087 175.031 30.8528C174.174 30.7383 173.204 30.8528 172.461 30.4521C170.405 29.3645 168.464 28.048 166.237 26.6742C165.323 29.1356 164.638 31.4825 163.61 33.6576C162.525 36.0617 161.211 38.2941 159.898 40.5838C159.041 42.0148 157.899 43.0451 155.958 41.5569C155.615 47.1092 154.93 52.3182 156.586 57.5271C157.442 60.2174 157.842 63.0795 158.584 65.827C159.727 70.1201 158.07 74.1842 157.556 78.3056C156.985 82.7131 156.072 87.0634 156.985 91.5282C157.728 95.2489 158.927 96.2793 162.753 96.5082C163.553 96.5655 164.295 96.7372 165.095 96.9089C165.095 97.1951 165.152 97.4813 165.152 97.7103C163.781 97.9965 162.411 98.3972 160.983 98.4544C158.642 98.5116 156.3 98.2827 153.959 98.3399C152.017 98.3972 151.56 97.5958 151.846 95.8786C152.531 91.8144 152.246 87.7503 150.818 83.8579C149.619 80.538 150.247 77.3325 151.103 74.1842C151.846 71.4367 150.932 68.9181 150.532 66.285C150.304 66.2277 150.133 66.2277 149.904 66.1705C149.219 67.716 148.591 69.2615 147.791 70.7498C146.821 72.467 145.964 74.3559 144.593 75.7297C141.281 79.0497 137.798 82.198 134.2 85.289C131.116 87.9221 130.888 91.471 133.914 94.2758C134.428 94.7337 134.885 95.1917 135.513 95.7641C131.973 96.8517 130.374 95.993 129.118 92.9593C128.489 91.3565 127.461 89.811 126.434 88.38C125.406 86.949 125.748 86.2048 127.176 85.4035C128.604 84.6021 129.974 83.7435 131.116 82.5986C136.313 77.1608 140.196 70.9787 141.567 63.3657C142.195 59.8167 142.709 56.4968 140.996 53.0051C139.739 50.4292 140.425 47.6244 141.453 44.8768C142.252 42.8734 142.88 40.641 142.994 38.5231C143.223 33.5431 142.994 28.5632 143.109 23.526C143.166 21.1791 143.68 18.8894 145.45 17.115C146.249 16.2563 146.763 15.2833 147.563 14.2529ZM157.385 21.2936C157.956 23.2397 158.642 25.0142 158.927 26.8459C159.213 28.7349 158.984 30.7383 158.984 32.9135C163.667 29.2501 162.81 23.6404 157.385 21.2936Z" fill="#918FE0"/>
<path d="M121.922 95.7069C120.837 96.2221 119.752 96.8517 118.553 97.1379C116.725 97.5959 114.784 97.7676 112.899 98.111C111.529 98.3972 110.444 97.9966 110.615 96.451C111.015 91.5856 109.13 87.407 107.017 83.2284C106.332 81.7974 106.275 79.9084 106.332 78.2484C106.503 74.8712 106.218 71.7229 103.819 68.8609C103.191 70.3492 102.791 71.8374 101.992 73.0395C100.793 74.8712 99.4221 76.5884 97.9944 78.1912C95.3675 81.1677 92.4551 83.9153 89.9995 87.0063C88.0579 89.4104 88.3435 90.4408 90.5135 92.7876C91.6556 94.0469 92.7406 95.3062 93.8257 96.5083C91.8269 97.4814 89.2 96.8517 87.6582 95.0773C86.6874 93.9897 85.4881 93.0166 84.2889 92.1007C83.0326 91.1849 82.8041 90.269 83.8892 89.1242C86.2305 86.6628 87.3155 83.5718 87.8295 80.2518C88.2863 77.3898 89.5998 75.1574 92.1696 73.7264C94.5109 72.4098 95.5388 70.5209 95.3675 67.7161C95.1962 65.0257 95.6531 62.3354 95.7673 59.5879C95.7673 58.672 95.5959 57.6417 95.1962 56.7258C93.8257 53.2913 93.8257 50.1431 95.4817 46.6514C96.681 44.19 96.5096 41.0418 96.9094 38.1797C97.4805 33.8867 97.8231 29.5363 98.6797 25.3005C99.0223 23.6978 100.393 22.324 101.364 20.8357C102.791 18.6606 104.333 16.5426 105.704 14.3675C107.531 11.5054 109.53 9.21579 113.413 9.95992C115.812 10.4179 118.21 12.1923 118.781 14.5392C118.895 14.9399 118.667 15.4551 118.553 15.913C118.438 16.3709 118.096 16.8288 118.096 17.2868C118.096 21.5226 117.639 22.0378 113.47 22.4385C113.299 22.4385 113.07 22.6102 112.614 22.8391C113.013 24.7281 113.356 26.6171 113.756 28.5632C114.441 31.9977 115.469 35.4322 115.754 38.9239C116.04 43.0452 117.468 46.6514 119.01 50.3148C120.037 52.8334 120.494 55.6382 121.065 58.3858C121.408 59.9313 121.18 61.3623 119.238 61.8775C116.897 62.5071 115.869 62.1065 114.784 59.9885C114.898 59.8741 114.955 59.7023 115.069 59.7023C115.926 59.6451 116.782 59.6451 117.696 59.5879C117.582 58.0423 117.753 56.3824 117.182 55.0086C116.154 52.5472 114.555 50.3721 113.356 47.9679C112.499 46.3079 111.985 44.4762 110.843 42.8162C110.444 45.7928 110.329 48.8265 109.587 51.7458C108.159 57.3555 111.186 61.763 112.956 66.5713C113.584 68.2885 113.927 70.1202 113.984 71.9519C114.098 77.3898 114.098 82.8277 114.041 88.2084C113.984 92.9594 115.64 95.1917 120.266 94.5621C120.666 94.5049 121.065 94.6766 121.522 94.6766C121.694 95.1917 121.808 95.478 121.922 95.7069Z" fill="#918FE0"/>
<path d="M79.3209 95.4781C77.9503 95.6498 76.5227 95.936 75.1521 95.8788C73.3818 95.8216 71.6115 95.4209 69.8412 95.3064C68.071 95.1919 67.2715 94.4478 67.2715 92.6161C67.3286 88.4375 67.2144 84.2589 67.4428 80.0803C67.4999 78.7637 68.5849 77.5617 69.0989 76.2451C69.3273 75.5582 69.6128 74.5279 69.2702 74.07C67.4999 71.7231 65.5583 69.4907 63.2169 67.5445C63.5024 70.0059 63.9022 72.41 63.9593 74.8713C64.0735 81.5113 62.0177 81.912 57.1065 83.6865C54.9365 84.4878 52.6523 85.003 50.4251 85.7471C48.198 86.5485 47.684 88.0368 48.4835 90.3264C48.9403 91.7002 49.0546 93.1885 49.5114 95.2491C47.7411 94.9629 45.8566 95.1347 44.9429 94.276C44.1434 93.5319 44.3147 91.5857 44.3147 90.1547C44.3147 88.323 44.6574 86.4913 44.7145 84.6596C44.7145 83.4575 44.8858 82.3699 46.2563 82.2554C48.8261 82.0265 50.7106 80.5382 52.6523 79.0499C53.2233 78.592 53.8515 78.2486 54.4797 77.9051C57.2779 76.3596 57.5063 75.3865 55.8502 72.6962C54.7081 70.9217 53.566 69.09 52.8236 67.1438C51.6243 64.0528 51.7386 61.019 53.1091 57.8135C54.0799 55.5811 53.6231 52.7763 54.1941 50.315C55.5076 44.7626 56.9923 39.2102 58.4771 33.7151C59.0482 31.5399 61.0469 30.6241 62.9314 30.1089C65.1585 29.4792 66.3007 27.8765 67.3857 26.1593C68.2423 24.7855 69.0418 23.2972 69.8983 21.9234C71.4973 19.4621 73.0963 18.9469 75.9516 19.8628C78.864 20.8359 80.5772 23.0683 80.463 25.5869C80.463 26.2165 80.6343 26.9034 80.8628 27.5331C81.4338 29.0213 80.1204 31.8834 78.5214 31.9979C76.6369 32.1123 74.7524 31.8261 72.8108 31.7116C72.7537 31.7689 72.5823 31.9406 72.6395 31.9979C74.1242 35.3751 73.4389 39.0385 74.1242 42.4729C74.8095 45.8502 76.2943 49.0557 77.4935 52.2612C78.2359 54.2646 79.2638 56.1535 79.9491 58.2142C80.7485 60.6183 79.6635 62.7363 77.0937 63.8238C77.4935 62.2783 79.4922 60.8473 77.2651 59.3018C76.6369 59.7597 76.0087 60.2749 75.2092 60.8473C75.1521 60.2749 74.9808 59.8742 75.1521 59.588C76.3514 57.2984 75.3234 55.4094 74.1813 53.5777C72.8679 51.4025 71.4973 49.3419 70.0697 47.1095C69.3844 50.6012 68.6991 54.0356 68.0138 57.4128C67.557 59.817 69.2702 61.1335 70.4694 62.8507C72.3539 65.5411 74.2384 68.3459 75.7232 71.2652C76.2372 72.181 75.6661 73.7265 75.4377 74.9858C75.2092 76.0162 74.6953 76.9893 74.4668 78.0196C73.6103 81.6258 72.8679 85.232 71.9542 88.8381C71.4973 90.7271 72.1255 91.8719 73.8958 92.5016C75.7232 93.1885 77.5506 93.8754 79.378 94.6195C79.3209 94.9629 79.3209 95.2491 79.3209 95.4781Z" fill="#918FE0"/>
<path d="M26.8398 65.6555C26.0403 68.0596 25.1266 70.4637 24.5556 72.9251C24.27 74.2989 24.8411 75.8444 24.6698 77.3326C24.1558 81.5112 23.5848 85.7471 22.8424 89.9257C22.4426 92.2153 24.2129 92.6732 25.3551 93.6463C25.9832 94.1615 26.7256 94.5049 27.468 94.9056C27.468 95.0773 27.4109 95.3063 27.4109 95.478C26.5543 95.5925 25.6977 95.8787 24.8982 95.7642C23.0708 95.5353 21.2434 95.1918 19.4731 94.6766C19.0163 94.5622 18.5594 93.5318 18.5594 92.9022C18.5023 88.2084 18.6165 83.5147 18.5594 78.8209C18.5594 78.1912 18.0455 77.5616 17.6457 76.8175C17.246 77.1609 16.9604 77.3326 16.9033 77.5616C15.8754 82.1981 12.3919 84.7167 8.79424 87.2353C7.88054 87.9222 6.85263 88.4946 5.93893 89.1243C3.94021 90.6125 3.76889 91.5856 5.53918 93.4746C6.50999 94.5049 7.70922 95.3635 8.79424 96.3366C8.73714 96.5656 8.68003 96.7946 8.62292 96.9663C6.90974 96.9663 5.13944 97.0235 3.42625 96.909C2.9694 96.8518 2.34123 96.3939 2.11281 95.9932C1.31332 94.276 0.513832 92.5587 -0.000124097 90.727C-0.228549 89.9829 0.171195 88.8381 0.685151 88.2084C2.85519 85.6326 5.19655 83.114 7.5379 80.6526C9.3082 78.8209 9.59373 76.703 8.28029 74.5278C4.62548 68.5175 5.48208 62.45 10.793 57.7562C14.1622 54.7797 17.7028 51.9176 21.1292 48.9411C22.2713 47.968 23.2992 46.8804 24.4414 45.9646C26.6685 44.1901 29.1241 43.217 32.0365 42.988C33.8068 42.8735 35.4629 41.6142 37.2332 41.2136C38.6608 40.8701 40.374 40.6411 41.7446 40.9846C44.3714 41.6715 45.1138 43.5032 44.5999 46.5942C44.5428 47.0521 44.3714 47.5673 44.3714 48.0252C44.4286 48.9411 44.9996 50.3149 44.657 50.6583C43.4006 51.7459 42.8296 53.8638 40.6595 53.7493C40.0314 53.6921 39.3461 53.6921 38.8321 53.4059C37.119 52.3183 36.2053 53.1197 35.52 54.6652C33.3499 59.5307 33.0073 64.6824 32.836 69.9485C32.6647 75.6726 34.6634 80.8816 36.0339 86.2622C36.2053 87.0636 36.3766 88.0939 36.0339 88.7808C35.4058 89.9257 34.3778 90.8415 33.4641 91.8718C32.7218 90.5553 30.9515 88.7808 31.3512 88.0367C33.3499 83.8009 29.9236 81.0533 29.1812 77.6188C28.4388 74.1844 27.8106 70.7499 27.1825 67.2582C27.0682 66.8003 27.1825 66.2851 27.1825 65.7699C27.0111 65.7127 26.8969 65.7127 26.8398 65.6555Z" fill="#918FE0"/>
</svg>
