<svg width="40" height="41" viewBox="0 0 40 41" fill="none" xmlns="http://www.w3.org/2000/svg">
<path d="M19.9998 4.58866C25.3473 4.58866 25.962 4.6194 28.0825 4.7116C30.0187 4.8038 31.0944 5.11112 31.8012 5.38772C32.7232 5.75651 33.3993 6.18677 34.1062 6.89363C34.813 7.60048 35.2433 8.24587 35.6121 9.19859C35.8887 9.90545 36.2267 10.9504 36.2882 12.9173C36.3804 15.0378 36.4111 15.6525 36.4111 21C36.4111 26.3475 36.3804 26.9622 36.2882 29.0828C36.196 31.0189 35.8887 32.0946 35.6121 32.8014C35.2433 33.7234 34.813 34.3995 34.1062 35.1064C33.3993 35.8132 32.7539 36.2435 31.8012 36.6123C31.0944 36.8889 30.0494 37.227 28.0825 37.2884C25.962 37.3806 25.3473 37.4114 19.9998 37.4114C14.6523 37.4114 14.0376 37.3806 11.9171 37.2884C9.98088 37.1962 8.90523 36.8889 8.19838 36.6123C7.27639 36.2435 6.60027 35.8132 5.89341 35.1064C5.18656 34.3995 4.7563 33.7541 4.3875 32.8014C4.11091 32.0946 3.77285 31.0497 3.71138 29.0828C3.61918 26.9622 3.58845 26.3475 3.58845 21C3.58845 15.6525 3.61918 15.0378 3.71138 12.9173C3.80358 10.9811 4.11091 9.90545 4.3875 9.19859C4.7563 8.27661 5.18656 7.60048 5.89341 6.89363C6.60027 6.18677 7.24566 5.75651 8.19838 5.38772C8.90523 5.11112 9.95015 4.77306 11.9171 4.7116C14.0069 4.6194 14.6523 4.58866 19.9998 4.58866ZM19.9998 0.99292C14.5601 0.99292 13.884 1.02365 11.7634 1.11585C9.64282 1.20805 8.16765 1.54611 6.9076 2.03784C5.58609 2.56029 4.4797 3.23642 3.37332 4.3428C2.26694 5.44918 1.59081 6.55557 1.06836 7.87708C0.576629 9.13713 0.238567 10.6123 0.146368 12.7329C0.0541697 14.8534 0.0234375 15.5603 0.0234375 20.9693C0.0234375 26.409 0.0541697 27.0851 0.146368 29.2057C0.238567 31.3263 0.576629 32.8014 1.06836 34.0615C1.59081 35.383 2.26694 36.4894 3.37332 37.5958C4.4797 38.7021 5.58609 39.3783 6.9076 39.9007C8.16765 40.3924 9.64282 40.7305 11.7634 40.8227C13.884 40.9149 14.5908 40.9456 19.9998 40.9456C25.4088 40.9456 26.1156 40.9149 28.2362 40.8227C30.3568 40.7305 31.8319 40.3924 33.092 39.9007C34.4135 39.3783 35.5199 38.7021 36.6263 37.5958C37.7327 36.4894 38.4088 35.383 38.9312 34.0615C39.423 32.8014 39.761 31.3263 39.8532 29.2057C39.9454 27.0851 39.9762 26.3783 39.9762 20.9693C39.9762 15.5603 39.9454 14.8534 39.8532 12.7329C39.761 10.6123 39.423 9.13713 38.9312 7.87708C38.4088 6.55557 37.7327 5.44918 36.6263 4.3428C35.5199 3.23642 34.4135 2.56029 33.092 2.03784C31.8319 1.54611 30.3568 1.20805 28.2362 1.11585C26.1156 1.02365 25.4088 0.99292 19.9998 0.99292Z" fill="white"/>
<path d="M19.9996 10.7354C14.3141 10.7354 9.73486 15.3453 9.73486 21.0001C9.73486 26.655 14.3448 31.2649 19.9996 31.2649C25.6545 31.2649 30.2644 26.655 30.2644 21.0001C30.2644 15.3453 25.6545 10.7354 19.9996 10.7354ZM19.9996 27.6692C16.3117 27.6692 13.3306 24.6881 13.3306 21.0001C13.3306 17.3122 16.3117 14.3311 19.9996 14.3311C23.6876 14.3311 26.6687 17.3122 26.6687 21.0001C26.6687 24.6881 23.6876 27.6692 19.9996 27.6692Z" fill="white"/>
<path d="M30.6643 12.702C31.9882 12.702 33.0614 11.6288 33.0614 10.3049C33.0614 8.98096 31.9882 7.90771 30.6643 7.90771C29.3403 7.90771 28.2671 8.98096 28.2671 10.3049C28.2671 11.6288 29.3403 12.702 30.6643 12.702Z" fill="white"/>
</svg>
