<svg width="73" height="81" viewBox="0 0 73 81" fill="none" xmlns="http://www.w3.org/2000/svg">
<path d="M70.2024 64.1899L68.3156 64.839C68.1204 63.8005 68.1855 63.3462 68.3156 62.5673C68.4458 61.8534 68.5759 61.0096 68.5759 59.5168C68.5759 55.6226 65.9734 49.976 65.8433 49.7164L65.7782 49.6515C63.9565 46.601 61.4841 46.9255 60.0527 47.1202C59.6623 47.1851 59.1418 47.25 58.9466 47.1851C57.255 46.2116 54.3272 45.9519 51.6597 47.1202C51.2042 47.1202 50.2934 47.25 49.3174 47.5745C48.4716 47.8991 47.7559 48.3534 47.1053 48.8726C45.9342 45.6274 44.1124 40.7596 43.9172 40.1106C43.3967 38.6827 41.5099 38.0986 41.3147 37.9688C40.4039 37.7092 39.493 37.7092 38.6472 38.0337C36.4351 38.8125 35.2639 41.3438 36.0447 43.5505L41.7051 59.1274C41.8352 59.387 41.9003 59.6467 41.9003 59.8414C37.8014 59.387 35.0037 59.9063 33.7024 61.5289C32.4012 63.0866 33.0518 64.9688 33.0518 65.0337C34.1579 68.0193 38.0616 68.0842 38.452 68.0842C44.3727 68.6034 46.3245 70.875 46.9101 72.4976L44.8932 73.2116L47.6909 80.8702L73.0001 71.7188L70.2024 64.1899ZM48.7969 77.4303L47.9511 75.0938L50.2934 74.25L51.1392 76.5866L48.7969 77.4303ZM65.9083 65.7476L49.4475 71.7188C49.1873 70.9399 48.7319 70.226 48.2114 69.5769C46.3245 67.3053 43.1365 66.0072 38.7122 65.6178H38.5821C38.5821 65.6178 36.0447 65.6178 35.5893 64.3197C35.5893 64.3197 35.3941 63.7356 35.7844 63.3462C35.9146 63.2164 36.1748 62.9568 36.6953 62.762C37.6062 62.4375 39.493 62.1779 43.1365 62.762L44.2425 62.9568L44.5679 61.8534C44.6329 61.6587 44.8932 60.4255 44.1775 58.4135L38.5171 42.8366C38.1917 41.9279 38.6472 40.9543 39.5581 40.6298C40.4689 40.3053 41.4449 40.7596 41.7702 41.6683L45.9342 53.2212C46.1944 53.8702 46.9101 54.2596 47.6258 54C48.2114 53.8053 48.6017 53.1563 48.4716 52.5072L48.3415 51.9231C48.0812 51.0144 49.3825 50.4952 50.3584 50.1058C51.2693 49.7813 52.1151 49.7813 52.1151 49.7813C52.1802 49.7813 52.1802 49.7813 52.2452 49.7813C52.5055 49.7813 52.7007 49.7813 52.9609 49.6515C52.9609 49.6515 53.091 49.5866 53.4163 49.4567C54.3272 49.1322 56.149 48.7428 58.1659 49.6515L58.296 49.7164C59.0768 49.976 59.9226 49.8462 60.6383 49.7813C61.9395 49.5866 62.8504 49.4568 63.7613 51.0144C63.9565 51.4688 66.2336 56.4664 66.2336 59.6467C66.2336 60.8798 66.1035 61.5938 65.9734 62.2428C65.583 63.2813 65.518 64.125 65.9083 65.7476Z" fill="black"/>
<path d="M38.1916 71.6538C35.1337 71.5889 31.0998 70.226 29.6684 66.3317C29.5383 65.9423 29.4082 65.488 29.3431 65.0336H4.16399V5.58173C4.16399 4.80288 4.81462 4.21875 5.5303 4.21875H48.6016C49.3824 4.21875 49.9679 4.86779 49.9679 5.58173V43.875L54.1319 43.0312V5.58173C54.1319 2.53125 51.6595 0 48.5365 0H5.59537C2.47237 0 0 2.46635 0 5.58173V70.226C0 73.2764 2.47237 75.8077 5.59537 75.8077H41.9652L40.5989 72.1082C39.8832 71.8486 39.1025 71.7188 38.1916 71.6538ZM29.6034 72.6923H24.6586V68.6034L27.1961 66.7212L29.6684 68.6034C29.6034 68.6034 29.6034 72.6923 29.6034 72.6923Z" fill="black"/>
<path d="M12.8821 45.4976L8.71812 43.7452L7.48193 46.6658L14.899 49.7163L18.2823 38.7476L22.6415 44.0697L32.2056 32.0625L47.4953 26.1562L46.3242 23.1707L30.2538 29.4014L22.5764 39.0072L16.981 32.1923L12.8821 45.4976Z" fill="black"/>
<path d="M34.2879 19.3413C34.2879 14.8629 30.6444 11.2932 26.2202 11.2932C21.796 11.2932 18.0874 14.9278 18.0874 19.3413C18.0874 23.7548 21.7309 27.3894 26.1551 27.3894C30.5794 27.3894 34.2879 23.8197 34.2879 19.3413ZM22.5116 24.1442L22.9671 22.5216C23.6177 22.911 24.5936 23.3004 25.6346 23.3004C26.7407 23.3004 27.4564 22.7812 27.4564 21.9374C27.4564 21.1586 26.8708 20.6394 25.5696 20.185C23.7478 19.536 22.5767 18.6923 22.5767 17.1346C22.5767 15.6418 23.6177 14.5384 25.3744 14.2139V12.5264H26.8058V14.149C27.9118 14.2139 28.6275 14.4735 29.2131 14.7331L28.7576 16.2908C28.3673 16.0961 27.5865 15.7067 26.4154 15.7067C25.1792 15.7067 24.7888 16.3557 24.7888 16.9398C24.7888 17.6538 25.4395 18.0432 26.8708 18.6273C28.8227 19.3413 29.6685 20.2499 29.6685 21.8076C29.6685 23.3004 28.6275 24.5336 26.7407 24.8581V26.6105H25.3093V24.923C24.2033 24.8581 23.0972 24.5985 22.5116 24.1442Z" fill="black"/>
</svg>
