<svg width="101" height="64" viewBox="0 0 101 64" fill="none" xmlns="http://www.w3.org/2000/svg">
<path d="M24.4614 63.9999C22.8461 63.9999 21.1537 63.9224 19.4614 63.6121C15.5384 62.8363 11.9999 61.2072 8.92298 58.6472C3.69221 54.303 0.692205 48.7175 0.153744 42.1236C-0.461641 35.1417 1.46144 28.9357 5.9999 23.7381C9.53836 19.6266 14.1537 16.9114 19.6153 15.8254C22.2307 15.2824 24.9999 15.2048 27.8461 15.6702C29.6922 11.869 32.3076 8.61084 35.6153 6.05084C39.4614 3.02539 43.6922 1.16357 48.2307 0.387812C54.8461 -0.698249 60.9999 0.310236 66.6153 3.49084C72.9999 7.05933 77.4614 12.4896 79.8461 19.4714C79.9999 19.9369 80.1537 20.4799 80.3076 20.9454C84.3845 21.1005 87.923 22.1866 90.923 24.0484C96.6153 27.6169 99.9999 32.7369 100.923 39.1757C101.923 45.9248 100.077 52.0533 95.5384 57.0181C91.4614 61.5175 86.3845 63.7672 80.4614 63.8448C79.1537 63.8448 77.8461 63.8448 76.5384 63.8448C74.9999 63.8448 73.4614 63.8448 71.923 63.8448C71.5384 63.8448 70.5384 63.8448 69.6922 63.069C68.846 62.2157 68.8461 61.1296 68.8461 60.8193C68.8461 57.5611 68.8461 54.303 68.8461 50.9672C68.8461 49.183 68.8461 47.4763 68.8461 45.6921C68.8461 43.5199 69.7691 42.589 71.923 42.589C72.7691 42.589 73.6922 42.589 74.5384 42.589C74.6153 42.589 74.7691 42.589 74.8461 42.589C73.6922 41.1151 72.4614 39.6411 71.3076 38.2448C68.923 35.2193 66.4614 32.2714 64.0768 29.246C63.923 29.0908 63.8461 28.9357 63.6922 28.7805C61.8461 31.0302 60.0768 33.3575 58.2307 35.6072C56.5384 37.7018 54.8461 39.7963 53.1537 41.8908L52.5384 42.6666C53.5384 42.6666 54.4614 42.6666 55.4614 42.6666C57.6153 42.6666 58.5384 43.5975 58.5384 45.6921V50.5793C58.5384 53.9927 58.5384 57.406 58.5384 60.8193C58.5384 61.1296 58.5384 62.2157 57.7691 63.069C56.9999 63.8448 55.846 63.8448 55.5384 63.8448C51.846 63.8448 48.2307 63.8448 44.5384 63.8448H41.0768C39.6922 63.8448 38.3076 63.8448 36.9999 63.8448C33.7691 63.8448 30.4614 63.8448 27.1537 63.9224H26.9999C26.0768 63.9999 25.3076 63.9999 24.4614 63.9999ZM23.923 19.2387C22.6922 19.2387 21.4614 19.3939 20.3076 19.6266C15.6153 20.6351 11.8461 22.8072 8.84605 26.2981C5.07682 30.6424 3.46144 35.9175 3.9999 41.7357C4.46144 47.3211 6.92297 51.9757 11.3845 55.6217C13.9999 57.7939 16.923 59.1902 20.2307 59.8108C22.3076 60.1987 24.5384 60.1987 26.7691 60.1211H26.923C30.2307 60.0436 33.6153 60.0436 36.8461 60.0436C38.2307 60.0436 39.5384 60.0436 40.923 60.0436H44.3845C47.7691 60.0436 51.1537 60.0436 54.5384 60.0436C54.5384 56.863 54.5384 53.7599 54.5384 50.6569V46.5454C53.6922 46.5454 52.923 46.5454 52.0768 46.5454H49.2307C47.8461 46.7005 47.2307 45.7696 46.9999 45.3817C46.8461 45.0714 46.3845 43.9854 47.3845 42.8218C47.4614 42.6666 47.6153 42.5114 47.6922 42.4339L50.0768 39.486C51.7691 37.3914 53.4614 35.2969 55.0768 33.2024C57.2307 30.5648 59.3076 27.9272 61.3845 25.2896C61.6153 24.9793 62.3076 24.126 63.4614 24.126C63.9999 24.126 64.7691 24.3587 65.4614 25.2896C65.6922 25.5999 65.923 25.9102 66.1537 26.143C66.3845 26.3757 66.5384 26.6084 66.7691 26.8411C69.1537 29.8666 71.6153 32.8145 73.9999 35.8399C75.846 38.0896 77.6153 40.3393 79.4614 42.6666C80.4614 43.7527 80.2307 44.6836 80.0768 45.2266C79.923 45.6145 79.3076 46.7781 77.5384 46.623C76.4614 46.623 75.3076 46.623 74.2307 46.623C73.6153 46.623 72.9999 46.623 72.3845 46.623C72.3845 48.0969 72.3845 49.6484 72.3845 51.1224C72.3845 54.1478 72.3845 57.0957 72.3845 60.1211C73.6922 60.1211 74.923 60.1211 76.2307 60.1211C77.5384 60.1211 78.846 60.1211 80.1537 60.1211C84.923 60.0436 89.0768 58.1818 92.4614 54.5357C96.2307 50.4242 97.7691 45.4593 96.923 39.8739C96.1537 34.5211 93.3845 30.3321 88.6922 27.3842C86.0768 25.7551 82.923 24.9017 79.2307 24.8242C77.8461 24.8242 76.923 24.0484 76.6153 22.7296C76.4614 22.0314 76.3076 21.3333 76.0768 20.7127C73.9999 14.5842 70.1537 9.92963 64.6153 6.8266C59.7691 4.11145 54.4614 3.25811 48.7691 4.18902C44.923 4.80963 41.2307 6.5163 37.923 9.0763C34.9999 11.4036 32.6922 14.2739 31.0768 17.7648C30.1537 19.7042 28.5384 19.7042 27.6922 19.549C26.3076 19.3939 25.0768 19.2387 23.923 19.2387Z" fill="black"/>
</svg>
