<svg width="77" height="77" viewBox="0 0 77 77" fill="none" xmlns="http://www.w3.org/2000/svg">
<path d="M10.8281 59.1745V43.3125H8.42188V59.1745C7.02505 59.6726 6.01562 60.996 6.01562 62.5625C6.01562 64.5525 7.63503 66.1719 9.625 66.1719C11.615 66.1719 13.2344 64.5525 13.2344 62.5625C13.2344 60.996 12.225 59.6726 10.8281 59.1745ZM9.625 63.7656C8.96088 63.7656 8.42188 63.2266 8.42188 62.5625C8.42188 61.8984 8.96088 61.3594 9.625 61.3594C10.2891 61.3594 10.8281 61.8984 10.8281 62.5625C10.8281 63.2266 10.2891 63.7656 9.625 63.7656Z" fill="black"/>
<path d="M16.8438 43.3125C14.8538 43.3125 13.2344 44.9319 13.2344 46.9219C13.2344 48.4883 14.2438 49.8118 15.6406 50.3099V66.1719H18.0469V50.3099C19.4437 49.8118 20.4531 48.4883 20.4531 46.9219C20.4531 44.9319 18.8337 43.3125 16.8438 43.3125ZM16.8438 48.125C16.1796 48.125 15.6406 47.586 15.6406 46.9219C15.6406 46.2578 16.1796 45.7188 16.8438 45.7188C17.5079 45.7188 18.0469 46.2578 18.0469 46.9219C18.0469 47.586 17.5079 48.125 16.8438 48.125Z" fill="black"/>
<path d="M63.7656 59.1745V43.3125H61.3594V59.1745C59.9625 59.6726 58.9531 60.996 58.9531 62.5625C58.9531 64.5525 60.5725 66.1719 62.5625 66.1719C64.5525 66.1719 66.1719 64.5525 66.1719 62.5625C66.1719 60.996 65.1625 59.6726 63.7656 59.1745ZM62.5625 63.7656C61.8984 63.7656 61.3594 63.2266 61.3594 62.5625C61.3594 61.8984 61.8984 61.3594 62.5625 61.3594C63.2266 61.3594 63.7656 61.8984 63.7656 62.5625C63.7656 63.2266 63.2266 63.7656 62.5625 63.7656Z" fill="black"/>
<path d="M69.7812 43.3125C67.7913 43.3125 66.1719 44.9319 66.1719 46.9219C66.1719 48.4883 67.1813 49.8118 68.5781 50.3099V66.1719H70.9844V50.3099C72.3812 49.8118 73.3906 48.4883 73.3906 46.9219C73.3906 44.9319 71.7712 43.3125 69.7812 43.3125ZM69.7812 48.125C69.1171 48.125 68.5781 47.586 68.5781 46.9219C68.5781 46.2578 69.1171 45.7188 69.7812 45.7188C70.4454 45.7188 70.9844 46.2578 70.9844 46.9219C70.9844 47.586 70.4454 48.125 69.7812 48.125Z" fill="black"/>
<path d="M52.9375 39.7031C52.4623 39.7031 52.0111 39.8006 51.5948 39.9678C51.1797 38.4338 49.7889 37.2969 48.125 37.2969C47.1974 37.2969 46.3588 37.659 45.7188 38.2353C45.0787 37.6578 44.2401 37.2969 43.3125 37.2969C42.889 37.2969 42.4872 37.3835 42.1094 37.5182V27.1654C47.112 25.7481 50.814 21.4818 51.578 16.3866L56.6648 19.185C53.6822 21.3759 51.7344 24.8987 51.7344 28.875C51.7344 35.509 57.1316 40.9062 63.7656 40.9062C70.3997 40.9062 75.7969 35.509 75.7969 28.875C75.7969 22.241 70.3997 16.8438 63.7656 16.8438C62.1161 16.8438 60.5425 17.1782 59.1095 17.7822L51.6971 13.7048C51.3145 6.74953 45.5503 1.20312 38.5 1.20312C31.4497 1.20312 25.6855 6.74953 25.3029 13.706L17.8905 17.7822C16.4575 17.1782 14.8851 16.8438 13.2344 16.8438C6.60034 16.8438 1.20312 22.241 1.20312 28.875C1.20312 35.509 6.60034 40.9062 13.2344 40.9062C19.8684 40.9062 25.2656 35.509 25.2656 28.875C25.2656 24.8975 23.3178 21.3759 20.334 19.1838L25.422 16.3854C26.186 21.4854 29.8856 25.7493 34.8918 27.1666V49.3438C34.8918 49.8912 34.7655 50.4398 34.5237 50.9307L33.5143 45.8848C32.7912 42.273 29.5933 39.6514 25.9105 39.6514C24.2297 39.6514 22.8606 41.0205 22.8606 42.7013C22.8606 43.3053 23.0374 43.89 23.3731 44.3929L24.6111 46.2505C25.0695 46.9375 25.3655 47.734 25.4677 48.5533L26.3003 55.2102C26.4375 56.3207 26.7888 57.3758 27.3073 58.2746L31.2812 66.4486V68.5781H28.875V75.7969H55.3438V68.5781H52.9375V66.5725L54.8625 64.0063C55.9489 62.5589 56.5469 60.765 56.5469 58.9531V43.3125C56.5469 41.3225 54.9275 39.7031 52.9375 39.7031ZM63.7656 38.5C61.6012 38.5 59.6088 37.7733 58.0003 36.5642C59.3538 34.7691 61.4833 33.6875 63.7656 33.6875C66.048 33.6875 68.1775 34.7691 69.531 36.5642C67.9224 37.7733 65.93 38.5 63.7656 38.5ZM60.1562 27.6719C60.1562 25.6819 61.7757 24.0625 63.7656 24.0625C65.7556 24.0625 67.375 25.6819 67.375 27.6719C67.375 29.6618 65.7556 31.2812 63.7656 31.2812C61.7757 31.2812 60.1562 29.6618 60.1562 27.6719ZM63.7656 19.25C69.0726 19.25 73.3906 23.568 73.3906 28.875C73.3906 31.1525 72.5918 33.246 71.2635 34.8954C70.3106 33.7092 69.1027 32.7743 67.7371 32.1547C68.9812 31.0515 69.7812 29.4609 69.7812 27.6719C69.7812 24.3549 67.0826 21.6562 63.7656 21.6562C60.4486 21.6562 57.75 24.3549 57.75 27.6719C57.75 29.4609 58.5501 31.0515 59.7941 32.1547C58.4286 32.7755 57.2206 33.7092 56.2678 34.8954C54.9395 33.246 54.1406 31.1525 54.1406 28.875C54.1406 23.568 58.4586 19.25 63.7656 19.25ZM13.2344 38.5C11.07 38.5 9.07758 37.7733 7.469 36.5642C8.82252 34.7691 10.952 33.6875 13.2344 33.6875C15.5167 33.6875 17.6462 34.7691 18.9998 36.5642C17.3912 37.7733 15.3988 38.5 13.2344 38.5ZM9.625 27.6719C9.625 25.6819 11.2444 24.0625 13.2344 24.0625C15.2243 24.0625 16.8438 25.6819 16.8438 27.6719C16.8438 29.6618 15.2243 31.2812 13.2344 31.2812C11.2444 31.2812 9.625 29.6618 9.625 27.6719ZM22.8594 28.875C22.8594 31.1525 22.0605 33.246 20.7323 34.8954C19.7794 33.7092 18.5714 32.7743 17.2059 32.1547C18.4499 31.0515 19.25 29.4609 19.25 27.6719C19.25 24.3549 16.5514 21.6562 13.2344 21.6562C9.91736 21.6562 7.21875 24.3549 7.21875 27.6719C7.21875 29.4609 8.01883 31.0515 9.26286 32.1547C7.89731 32.7755 6.68937 33.7092 5.7365 34.8954C4.40825 33.246 3.60938 31.1525 3.60938 28.875C3.60938 23.568 7.92739 19.25 13.2344 19.25C18.5414 19.25 22.8594 23.568 22.8594 28.875ZM27.6719 14.4375C27.6719 8.46639 32.5289 3.60938 38.5 3.60938C44.4711 3.60938 49.3281 8.46639 49.3281 14.4375C49.3281 16.8642 48.504 19.1381 47.112 20.9729C46.1218 18.9769 44.4819 17.4056 42.4872 16.5009C43.7216 15.3988 44.5156 13.8131 44.5156 12.0312C44.5156 8.71423 41.817 6.01562 38.5 6.01562C35.183 6.01562 32.4844 8.71423 32.4844 12.0312C32.4844 13.8131 33.2784 15.3988 34.5128 16.5009C32.5169 17.4056 30.877 18.9781 29.8868 20.9741C28.4948 19.1405 27.6719 16.8666 27.6719 14.4375ZM42.1094 12.0312C42.1094 14.0212 40.49 15.6406 38.5 15.6406C36.51 15.6406 34.8906 14.0212 34.8906 12.0312C34.8906 10.0413 36.51 8.42188 38.5 8.42188C40.49 8.42188 42.1094 10.0413 42.1094 12.0312ZM31.7168 22.863C32.725 20.0007 35.4056 18.0469 38.5 18.0469C41.592 18.0469 44.2726 20.0007 45.2832 22.8606C44.2293 23.7136 43.0141 24.3789 41.6763 24.7892C41.0687 23.6474 39.8812 22.8594 38.5 22.8594C37.1188 22.8594 35.9313 23.6474 35.325 24.7892C33.9859 24.3789 32.7707 23.7148 31.7168 22.863ZM52.9375 73.3906H31.2812V70.9844H52.9375V73.3906ZM54.1406 58.9531C54.1406 60.2465 53.7135 61.529 52.9375 62.5625L50.5312 65.7712V68.5781H33.6875V65.8952L29.4333 57.152C29.0362 56.4602 28.786 55.7083 28.6873 54.9154L27.8547 48.2573C27.7068 47.0699 27.2785 45.9149 26.6131 44.9187L25.3739 43.0598C25.3029 42.954 25.2656 42.83 25.2656 42.7013C25.2656 42.3464 25.5544 42.0588 25.9093 42.0588C28.4491 42.0588 30.6544 43.8671 31.1537 46.3576L32.7009 54.0901H35.6342L36.6616 52.034C37.0767 51.2038 37.2969 50.2726 37.2969 49.345V26.4688C37.2969 25.8046 37.8359 25.2656 38.5 25.2656C39.1641 25.2656 39.7031 25.8046 39.7031 26.4688V40.9062V45.7188H42.1094V40.9062C42.1094 40.2421 42.6484 39.7031 43.3125 39.7031C43.9766 39.7031 44.5156 40.2421 44.5156 40.9062V45.7188H46.9219V40.9062C46.9219 40.2421 47.4609 39.7031 48.125 39.7031C48.7891 39.7031 49.3281 40.2421 49.3281 40.9062V43.3125V45.7188H51.7344V43.3125C51.7344 42.6484 52.2734 42.1094 52.9375 42.1094C53.6016 42.1094 54.1406 42.6484 54.1406 43.3125V58.9531Z" fill="black"/>
</svg>
