<svg width="71" height="84" viewBox="0 0 71 84" fill="none" xmlns="http://www.w3.org/2000/svg">
<path d="M10.3399 72.1291C10.2375 72.0268 10.0669 71.8903 9.79389 71.7196C9.52089 71.549 9.21377 71.3784 8.80427 71.2078C8.42889 71.0371 8.01939 70.9006 7.54164 70.7983C7.09801 70.6959 6.62026 70.6276 6.17664 70.6276C5.35764 70.6276 4.74338 70.7641 4.33388 71.0713C3.92438 71.3784 3.71963 71.7879 3.71963 72.368C3.71963 72.6751 3.78788 72.9481 3.95851 73.1529C4.09501 73.3576 4.33388 73.5624 4.60688 73.6989C4.87988 73.8695 5.25526 74.006 5.69889 74.1425C6.14251 74.279 6.65439 74.4155 7.23451 74.552C7.98527 74.7568 8.66777 74.9615 9.28202 75.2004C9.89627 75.4393 10.4081 75.7123 10.8518 76.0535C11.2954 76.3948 11.6025 76.8043 11.8414 77.3161C12.0803 77.7939 12.1826 78.4081 12.1826 79.1248C12.1826 79.9438 12.012 80.6604 11.7049 81.2405C11.3978 81.8207 10.9883 82.2984 10.4423 82.6738C9.93039 83.0491 9.31614 83.288 8.63364 83.4587C7.95114 83.6293 7.23451 83.6975 6.48376 83.6975C5.32351 83.6975 4.16326 83.5269 3.03713 83.1856C1.911 82.8444 0.887252 82.3325 0 81.7183L1.33088 79.1248C1.46738 79.2613 1.70625 79.4319 2.0475 79.6366C2.38875 79.8414 2.79826 80.0462 3.24188 80.2509C3.71963 80.4557 4.23151 80.6263 4.77751 80.7969C5.35764 80.9334 5.93776 81.0016 6.51789 81.0016C8.15589 81.0016 9.00902 80.4898 9.00902 79.4319C9.00902 79.0906 8.90664 78.8176 8.73602 78.5788C8.53127 78.3399 8.29239 78.1351 7.91702 77.9645C7.57576 77.7939 7.13214 77.6233 6.65439 77.4868C6.17664 77.3503 5.59651 77.1796 5.01639 77.009C4.26563 76.8043 3.65138 76.5995 3.10538 76.3606C2.55938 76.1218 2.11575 75.8488 1.74038 75.5075C1.365 75.1663 1.092 74.7909 0.921377 74.3814C0.750751 73.9378 0.648376 73.46 0.648376 72.8458C0.648376 72.0609 0.784876 71.3784 1.092 70.7641C1.365 70.1499 1.7745 69.638 2.28638 69.2285C2.79826 68.819 3.41251 68.5119 4.09501 68.3071C4.77751 68.1024 5.49414 68 6.27901 68C7.37101 68 8.36064 68.1706 9.28202 68.5119C10.2034 68.8531 10.9883 69.2626 11.6708 69.7063L10.3399 72.1291Z" fill="#1D1D1B"/>
<path d="M16.8237 83.5269V68.1024H23.3757C24.0924 68.1024 24.7407 68.2389 25.355 68.546C25.9692 68.8531 26.4811 69.2285 26.9248 69.7062C27.3684 70.184 27.7096 70.73 27.9485 71.3442C28.1874 71.9585 28.3239 72.5727 28.3239 73.187C28.3239 73.8354 28.2215 74.4837 27.9826 75.098C27.7438 75.7122 27.4366 76.2582 26.993 76.736C26.5835 77.2137 26.0716 77.5891 25.4574 77.8962C24.8772 78.1692 24.1947 78.3399 23.5122 78.3399H19.8267V83.5269H16.8237ZM19.8267 75.7122H23.3075C23.8535 75.7122 24.3312 75.4734 24.6725 75.0297C25.0479 74.5861 25.2185 73.9719 25.2185 73.2211C25.2185 72.8457 25.1502 72.4704 25.0479 72.1632C24.9455 71.8561 24.7749 71.5831 24.6042 71.3784C24.3995 71.1736 24.1947 71.003 23.9559 70.9006C23.717 70.7982 23.444 70.73 23.171 70.73H19.8267V75.7122Z" fill="#1D1D1B"/>
<path d="M32.4102 83.4606V68.0361H35.4132V83.4606H32.4102Z" fill="#1D1D1B"/>
<path d="M42.1787 83.5269V68.1024H49.0037C49.7204 68.1024 50.3687 68.2389 50.983 68.546C51.5972 68.8531 52.1091 69.2285 52.5527 69.7062C52.9964 70.184 53.3376 70.73 53.5765 71.3442C53.8154 71.9585 53.9519 72.5727 53.9519 73.187C53.9519 74.1766 53.713 75.098 53.2011 75.917C52.6892 76.736 52.0067 77.3161 51.1536 77.6915L54.6685 83.4928H51.2901L48.1506 78.3057H45.1817V83.4928H42.1787V83.5269ZM45.1817 75.7122H48.9355C49.2085 75.7122 49.4815 75.644 49.7204 75.5075C49.9592 75.371 50.164 75.2004 50.3346 74.9615C50.5052 74.7226 50.6417 74.4837 50.7441 74.1766C50.8465 73.8695 50.8806 73.5624 50.8806 73.187C50.8806 72.8116 50.8124 72.5045 50.71 72.1974C50.6076 71.8902 50.437 71.6172 50.2322 71.4125C50.0275 71.1736 49.8227 71.003 49.5497 70.9006C49.3109 70.7641 49.0379 70.73 48.7648 70.73H45.1476V75.7122H45.1817Z" fill="#1D1D1B"/>
<path d="M69.0351 80.8993V83.5269H58.3198V68.1024H68.8303V70.73H61.3228V74.4496H67.8066V76.8725H61.3228V80.8993H69.0351Z" fill="#1D1D1B"/>
<path d="M18.3355 43.6518L43.6563 52.3196C47.0006 53.4798 50.5496 50.9546 50.2084 47.6786L45.8062 3.96437C45.465 0.688367 41.5065 -1.08614 38.4693 0.722492L15.3667 14.2701C3.38877 21.2999 5.1974 39.1473 18.3355 43.6518Z" fill="#867E90"/>
<path d="M69.1476 34.9499L57.3062 18.5699C53.3135 13.0758 44.9529 13.6559 41.7793 19.696L33.4186 35.7007C30.2791 41.7067 34.5447 48.9412 41.3356 49.0777L61.5377 49.4531C69.0793 49.5896 73.5497 41.0583 69.1476 34.9499Z" fill="#918FE0"/>
<path d="M47.6746 33.1092L44.3303 28.6729C36.8569 18.7425 21.5348 20.1416 16.0065 31.2323L13.7884 35.6686C8.22601 46.7933 16.3136 59.8632 28.7352 59.8632H34.2976C37.7442 59.8632 40.8154 58.8736 43.3748 57.2356C46.3778 55.2905 48.6301 52.4581 49.8927 49.2162C51.872 44.1657 51.4625 38.1597 47.6746 33.1092Z" fill="#FFEC4B"/>
<path d="M22.0893 43.4812C21.9186 44.4708 21.3385 45.3922 20.4171 46.0064C18.5744 47.2349 16.015 46.7913 14.7182 44.9827L5.74334 32.4929C4.44659 30.6843 4.89022 28.2273 6.73297 26.9988C8.57573 25.7703 11.1351 26.2139 12.4319 28.0225L21.4067 40.5123C22.0893 41.4337 22.294 42.4915 22.0893 43.4812Z" fill="#918FE0"/>
<path d="M48.9455 30.7867C48.809 31.5374 48.3653 32.2199 47.6828 32.6977C46.2837 33.619 44.4068 33.2778 43.4172 31.9128L36.7287 22.5625C35.7732 21.1975 36.0803 19.3548 37.4794 18.4334C38.8786 17.512 40.7554 17.8533 41.7451 19.2183L48.4336 28.5685C48.9113 29.251 49.082 30.0359 48.9455 30.7867Z" fill="#1D1D1B"/>
<path d="M38.0596 14.8502C38.0596 16.693 36.5581 18.1945 34.7153 18.1945C32.8726 18.1945 31.3711 16.693 31.3711 14.8502C31.3711 13.0075 32.8726 11.506 34.7153 11.506C36.5581 11.506 38.0596 12.9734 38.0596 14.8502Z" fill="#1D1D1B"/>
<path d="M50.1655 55.3246L46.9578 50.8542C46.9578 50.8542 46.9578 50.8542 46.9578 50.8883L39.109 39.9683C37.5051 37.716 34.3315 37.1359 32.0451 38.6716C29.7587 40.2072 29.1786 43.2443 30.8166 45.4966L40.5081 58.976L41.9073 60.9211C43.5111 63.1733 46.6848 63.7535 48.9711 62.2178C50.1314 61.4671 50.8139 60.3068 51.0528 59.0783C51.2234 57.7816 50.9504 56.4507 50.1655 55.3246Z" fill="#867E90"/>
</svg>
